<svg width="57" height="57" viewBox="0 0 57 57" fill="none" xmlns="http://www.w3.org/2000/svg">
<path d="M28.5 7.125C15.4375 7.125 4.75 15.6275 4.75 26.125C4.86875 31.2313 7.2675 36.0287 11.2812 39.1875C11.2812 40.6125 10.2837 44.3413 4.75 49.875C10.3787 49.6138 15.77 47.5 20.1163 43.9375C22.8238 44.7213 25.6737 45.125 28.5 45.125C41.5625 45.125 52.25 36.6225 52.25 26.125C52.25 15.6275 41.5625 7.125 28.5 7.125ZM28.5 40.375C18.0025 40.375 9.5 33.9862 9.5 26.125C9.5 18.2638 18.0025 11.875 28.5 11.875C38.9975 11.875 47.5 18.2638 47.5 26.125C47.5 33.9862 38.9975 40.375 28.5 40.375Z" fill="black"/>
<path d="M30.5833 33.7917H34.75V19.2083H30.5833M22.25 33.7917H26.4167V19.2083H22.25V33.7917Z" fill="black"/>
</svg>
