<svg width="24" height="24" viewBox="0 0 24 24" fill="none" xmlns="http://www.w3.org/2000/svg">
<path d="M15.5 12C18 12 20 14 20 16.5C20 17.38 19.75 18.21 19.31 18.9L22.39 22L21 23.39L17.88 20.32C17.19 20.75 16.37 21 15.5 21C13 21 11 19 11 16.5C11 14 13 12 15.5 12ZM15.5 14C14.837 14 14.2011 14.2634 13.7322 14.7322C13.2634 15.2011 13 15.837 13 16.5C13 17.163 13.2634 17.7989 13.7322 18.2678C14.2011 18.7366 14.837 19 15.5 19C16.163 19 16.7989 18.7366 17.2678 18.2678C17.7366 17.7989 18 17.163 18 16.5C18 15.837 17.7366 15.2011 17.2678 14.7322C16.7989 14.2634 16.163 14 15.5 14ZM7 15V17H9C9.14 18.55 9.8 19.94 10.81 21H5C3.89 21 3 20.1 3 19V5C3 3.89 3.89 3 5 3H19C19.5304 3 20.0391 3.21071 20.4142 3.58579C20.7893 3.96086 21 4.46957 21 5V13.03C19.85 11.21 17.82 10 15.5 10C14.23 10 13.04 10.37 12.04 11H7V13H10C9.64 13.6 9.34 14.28 9.17 15H7ZM17 9V7H7V9H17Z" fill="black"/>
</svg>
